<svg xmlns="http://www.w3.org/2000/svg" xmlns:xlink="http://www.w3.org/1999/xlink" viewBox="0 0 798.2 781.26"><defs><style>.cls-1,.cls-10,.cls-11,.cls-12,.cls-13,.cls-14,.cls-15,.cls-16,.cls-17,.cls-18,.cls-19,.cls-2,.cls-20,.cls-3,.cls-4,.cls-5,.cls-6,.cls-7,.cls-8,.cls-9{stroke:#076266;stroke-linecap:round;stroke-miterlimit:10;stroke-width:6px;}.cls-1{fill:url(#Dégradé_sans_nom_22);}.cls-2{fill:url(#Dégradé_sans_nom_22-2);}.cls-3{fill:url(#Dégradé_sans_nom_22-3);}.cls-4{fill:url(#Dégradé_sans_nom_22-4);}.cls-5{fill:url(#Dégradé_sans_nom_22-5);}.cls-6{fill:url(#Dégradé_sans_nom_22-6);}.cls-7{fill:url(#Dégradé_sans_nom_22-7);}.cls-8{fill:url(#Dégradé_sans_nom_23);}.cls-9{fill:url(#Dégradé_sans_nom_18);}.cls-10{fill:url(#Dégradé_sans_nom_3);}.cls-11{fill:url(#Dégradé_sans_nom_2);}.cls-12{fill:none;}.cls-13{fill:url(#Dégradé_sans_nom_22-8);}.cls-14{fill:url(#Dégradé_sans_nom_3-2);}.cls-15{fill:url(#Dégradé_sans_nom_3-3);}.cls-16{fill:url(#Dégradé_sans_nom_22-9);}.cls-17{fill:url(#Dégradé_sans_nom_2-2);}.cls-18{fill:url(#Dégradé_sans_nom_22-10);}.cls-19{fill:url(#Dégradé_sans_nom_22-11);}.cls-20{fill:url(#Dégradé_sans_nom_22-12);}</style><linearGradient id="Dégradé_sans_nom_22" x1="526.7" y1="92.02" x2="750.5" y2="92.02" gradientUnits="userSpaceOnUse"><stop offset="0.17" stop-color="#098491"/><stop offset="0.3" stop-color="#168a96"/><stop offset="0.56" stop-color="#389ba2"/><stop offset="0.91" stop-color="#70b7b6"/><stop offset="1" stop-color="#80bfbc"/></linearGradient><linearGradient id="Dégradé_sans_nom_22-2" x1="713.98" y1="238.38" x2="771.25" y2="238.38" xlink:href="#Dégradé_sans_nom_22"/><linearGradient id="Dégradé_sans_nom_22-3" x1="263.58" y1="735.08" x2="299.15" y2="735.08" xlink:href="#Dégradé_sans_nom_22"/><linearGradient id="Dégradé_sans_nom_22-4" x1="745.52" y1="325.78" x2="781.1" y2="325.78" xlink:href="#Dégradé_sans_nom_22"/><linearGradient id="Dégradé_sans_nom_22-5" x1="325.47" y1="752.68" x2="491.84" y2="752.68" xlink:href="#Dégradé_sans_nom_22"/><linearGradient id="Dégradé_sans_nom_22-6" x1="145.7" y1="706.57" x2="236.98" y2="706.57" xlink:href="#Dégradé_sans_nom_22"/><linearGradient id="Dégradé_sans_nom_22-7" x1="762.63" y1="410.84" x2="795.2" y2="410.84" xlink:href="#Dégradé_sans_nom_22"/><radialGradient id="Dégradé_sans_nom_23" cx="1237.87" cy="1163.07" r="28.1" gradientTransform="translate(-590.99 -535.49) rotate(-4.73)" gradientUnits="userSpaceOnUse"><stop offset="0" stop-color="#31a7b3"/><stop offset="0.16" stop-color="#2ea0ac"/><stop offset="0.39" stop-color="#278c98"/><stop offset="0.66" stop-color="#1b6c78"/><stop offset="0.97" stop-color="#0a404c"/><stop offset="1" stop-color="#083b47"/></radialGradient><radialGradient id="Dégradé_sans_nom_18" cx="1143.05" cy="9822.57" r="42.56" gradientTransform="matrix(0.67, -0.75, -0.75, -0.67, 7264.62, 8145.97)" gradientUnits="userSpaceOnUse"><stop offset="0" stop-color="#966a18"/><stop offset="1" stop-color="#c9a025"/></radialGradient><linearGradient id="Dégradé_sans_nom_3" x1="599.05" y1="556.73" x2="720.38" y2="556.73" gradientUnits="userSpaceOnUse"><stop offset="0" stop-color="#b58610"/><stop offset="0" stop-color="#bc8b13"/><stop offset="0" stop-color="#d0981b"/><stop offset="0" stop-color="#d89e1e"/><stop offset="0.37" stop-color="#d9a11a"/><stop offset="0.73" stop-color="#ddab0e"/><stop offset="1" stop-color="#e2b700"/></linearGradient><linearGradient id="Dégradé_sans_nom_2" x1="564.13" y1="779.61" x2="813.15" y2="530.59" gradientUnits="userSpaceOnUse"><stop offset="0" stop-color="#b58610"/><stop offset="0" stop-color="#bc8b0f"/><stop offset="0" stop-color="#d0990e"/><stop offset="0" stop-color="#e2a50c"/><stop offset="0.14" stop-color="#e8ad0a"/><stop offset="0.67" stop-color="#f9c503"/><stop offset="1" stop-color="#ffce00"/></linearGradient><linearGradient id="Dégradé_sans_nom_22-8" x1="822.23" y1="12258.84" x2="840.46" y2="12258.84" gradientTransform="matrix(0.97, 0.25, 0.25, -0.97, -3392.75, 12335.36)" xlink:href="#Dégradé_sans_nom_22"/><linearGradient id="Dégradé_sans_nom_3-2" x1="71.19" y1="380.46" x2="296.28" y2="380.46" xlink:href="#Dégradé_sans_nom_3"/><linearGradient id="Dégradé_sans_nom_3-3" x1="228.71" y1="159.3" x2="429.53" y2="159.3" xlink:href="#Dégradé_sans_nom_3"/><linearGradient id="Dégradé_sans_nom_22-9" x1="111.9" y1="214.07" x2="285.96" y2="214.07" xlink:href="#Dégradé_sans_nom_22"/><linearGradient id="Dégradé_sans_nom_2-2" x1="21.29" y1="478.4" x2="482.83" y2="16.86" xlink:href="#Dégradé_sans_nom_2"/><linearGradient id="Dégradé_sans_nom_22-10" x1="304.89" y1="140.18" x2="469.33" y2="140.18" xlink:href="#Dégradé_sans_nom_22"/><linearGradient id="Dégradé_sans_nom_22-11" x1="56.59" y1="540.13" x2="200.03" y2="540.13" xlink:href="#Dégradé_sans_nom_22"/><linearGradient id="Dégradé_sans_nom_22-12" x1="83.17" y1="617.67" x2="123.68" y2="617.67" xlink:href="#Dégradé_sans_nom_22"/></defs><title>logo seul</title><g id="Calque_2" data-name="Calque 2"><g id="Calque_1-2" data-name="Calque 1"><path class="cls-1" d="M539.69,50.29,662.18,162.7a4.09,4.09,0,0,0,2.86,1.08l81.45-1.84a4.09,4.09,0,0,0,2.75-7l-49.92-48.25a4.39,4.39,0,0,0-1-.69L532.68,20.73a4.09,4.09,0,0,0-5.52,5.49l11.64,22.9A4.22,4.22,0,0,0,539.69,50.29Z"/><path class="cls-2" d="M714.84,225.71l22.88,35.39a5.43,5.43,0,0,0,1.13,1.26l23.67,19.1a5.34,5.34,0,0,0,8.14-6.54L732,197a5.34,5.34,0,0,0-9.85.67l-7.89,23.39A5.32,5.32,0,0,0,714.84,225.71Z"/><path class="cls-3" d="M293,754l-8.78-4.88a4.21,4.21,0,0,1-1.33-1.19l-18.55-25.78a4.12,4.12,0,0,1,3.78-6.5l15.36,1.63a4.12,4.12,0,0,1,3.37,2.52l12,29A4.12,4.12,0,0,1,293,754Z"/><path class="cls-4" d="M751.65,306.86l8.78,4.89a4.13,4.13,0,0,1,1.34,1.19l18.54,25.78a4.12,4.12,0,0,1-3.77,6.5l-15.37-1.63a4.11,4.11,0,0,1-3.37-2.53l-11.95-29A4.11,4.11,0,0,1,751.65,306.86Z"/><path class="cls-5" d="M332,727.13,453.4,738.72a5.51,5.51,0,0,1,2.19.69L488.71,758c5.25,3,3.52,11.5-2.43,12l-100.9,8.23a5.53,5.53,0,0,1-3.7-1l-53.6-38.43C323,735.13,325.9,726.55,332,727.13Z"/><path class="cls-6" d="M217.09,750.64l-40.19-30.7a5.82,5.82,0,0,1-1.46-1.63l-28.88-48.16a5.81,5.81,0,0,1,7.67-8.14l76.72,40A5.81,5.81,0,0,1,234,706.7L237,740.56a5.82,5.82,0,0,1-3.31,5.76l-10.55,5A5.83,5.83,0,0,1,217.09,750.64Z"/><path class="cls-7" d="M763,406.09l23.79-42.47a3.13,3.13,0,0,1,5.85,1.24l2.52,27.4a3.18,3.18,0,0,1,0,.69l-8.35,64a3.13,3.13,0,0,1-6.05.67L762.83,408.7A3.14,3.14,0,0,1,763,406.09Z"/><polygon class="cls-8" points="754.12 523.39 726.4 559.3 741.05 484.47 754.12 523.39"/><path class="cls-9" d="M731.88,738s.82,7.45,7.76,9.29c13.71,3.65,23.19,11.31,19.67,15.29-10.5,11.88-93.12-15-111.19-23.5s37.59-13.74,37.59-13.74l34.77,2.79Z"/><path class="cls-10" d="M600.47,650.53s20.29-5.67,33.32-21.83c18.2-22.58,36.35-56.79,39.36-91.51s.57-56.68-1.8-65.23-3.55-15.57-1.21-19,6.15-5.89,10.56,0c3.47,4.63,10.07,6.35,11.8,19.83,1.71,2.69,15.56,7.59,11.88,22.85,2,3.17,13.06,15.67,7.67,27.43,4.31,4.4,10.26,12.49,7.72,22L692.88,645.39l-31.29,18.67s-39-1-41.35-2.51-21.19-8-21.19-8Z"/><path class="cls-11" d="M770.72,746.93c4.84,6.5.11,9.9-22.59,9.35-10.52-.71-20.57-.88-42.67-3.67-21.5-2.71-43-5.14-83.18-12.67-12-2.05-27.42-1.76-30.58-.58s-12.45,11.39-28.43,12.39c-11.76.73-24.82-8.31-32.25-18.19-1.79,4.39-1.95,8.81-6,5.7s-32.38-22.85-25.64-61.3c7.5-42.77,51.1-49.39,69.87-40.9,20.82,9.41,35.14,16.91,51.48,15.8S691,615.44,707.11,574.1s20.49-98.44,18.49-106.89-6.66-25.7,3.88-19a36.45,36.45,0,0,1,14.84,18.76c.29.83,1.09,1.16,1.86,1.59,6.83,3.84,22.54,22,17.6,40.29,2.65,3.76,16.63,20.9,7.16,61.9,4.54,5.79,18,23.7-2.47,58.1,2,6.31,6.37,23.94-9.82,53.7-.51,8.69-1,34.44-27.67,49.83l10,2.89C753.23,738.22,765.6,740,770.72,746.93Z"/><path class="cls-12" d="M498.81,683c2.34-20.26,27.51-43.41,62-27.2,27.56,13,39,38.7,30.94,60.3"/><ellipse class="cls-13" cx="535.36" cy="693.19" rx="8.47" ry="15.64" transform="translate(-274.87 360.55) rotate(-30)"/><path class="cls-14" d="M130.75,247.5s23.73,8.48,54.09,41.13c11.19,12,43.93,46.22,38.83,92.76s5.13,74.88,22.54,84.24,58.07,26.76,48.68,44.52c-9.07,13.93-30.67-2.13-41.46-8.59-11.5-6.9-35.36-18.62-42.9-42.38S197.74,390,157,377.37c-45.69-14.15-80.58-63.66-85.43-82.85S111.92,235.37,130.75,247.5Z"/><path class="cls-15" d="M388.36,195.61c1,1.4,7.11,4.62,8.55,5.56,4.28,2.78,14,32.47,26.21,18,5.32-6.3,12-22.11-1.74-37.23C413.3,173,382,154.72,344.49,159.55s-64.72,10.43-61-30c4.25-46.13-54.79-32-54.79-32l33.69,73.73s13.17,20.05,14.07,20,86.12,2.43,86.12,2.43l21.69-4.11Z"/><path class="cls-16" d="M130.35,304.64s49.92-93.51,131.88-146.49-74.71-29.44-74.71-29.44L111.9,298.52Z"/><path class="cls-17" d="M6.62,340.07s-31.54-155.77,126-269.9c6.83-4.94,13.62-9.93,20.43-14.9C217,8.57,302.41-7.07,378.27,9.28c22.31,3.71,46.12,2.35,65,2.06,18.31-.27,28.32.42,32.31.73,13,1-1,22-36,20,6,5,47.05,8.08,53,8,9-.14-5.8,25.23-45.59,21.22,2.86,3.36,18.09,5.74,25.27,39.9,6.27,29.87,10.54,31.13,17.9,40.49s26.71,26.45,22.35,28.77c-4.93,2.62-22.77,11.24-31.85,5.37-4.7-3-48.47-50.72-175.68-33-.58,4.76-5,44.09,22.08,41.43,27.7-2.72,63.63-9.08,82.8,10.57,18.52,19,21.8,35.33,6.85,47-13.12,10.25-17.71-21.68-34.84-24.67-9.19-1.6-89.43,7.49-107.35-3.35s-28.65-36.17-25.71-54.38c-4.46-5-47.73.51-118.29,138.19,10.32.53,64.89,23.76,67.53,80.86s13.82,99,38.72,109.14,49.16,18.58,39.06,39.15c-6.79,13.83-56.86-7.48-74.15-36.72s-25.78-47.43-31-60.36-13-24.19-50.91-29.18-79-36.49-89.68-51.12c-4.63,8-.94,43.63,33.45,67.71s81.72,49.4,114,112c33,64,20.86,75.86,15.34,81-14.56,13.44-40.34,7-67.34-30-30.25-41.45-72.37-74.36-97-118C5.59,421.27-2.38,371.07,6.62,340.07Z"/><path class="cls-18" d="M304.89,143.51s5.27-40.91,83.92-27.38c47.16,8.11,63.77,25.71,80.52,50.85C455.79,159.86,395.56,127.62,304.89,143.51Z"/><path class="cls-19" d="M197.59,578.78c-9.61-44.09-39-81.25-77.28-105.12-4-2.49-8.44-4.92-13-7.9-20.74-13.69,9.26,20.31,11.52,35.83,2.47,16.94-40.26-17.52-59.51-35.14-11.24-10.28,13.87,48.92,35.25,74.62s36.51,47.43,53,63c18,17,39.62,18,49.43,3.61C201.34,601.41,200.53,592.23,197.59,578.78Z"/><path class="cls-20" d="M83.37,628.17l-.2-42c0-3.12,3.53-4.78,4.9-2.3l35.22,63.73c1.43,2.59-1.38,6.12-3.71,4.67l-35-21.76A2.77,2.77,0,0,1,83.37,628.17Z"/></g></g></svg>