<svg xmlns="http://www.w3.org/2000/svg" xmlns:xlink="http://www.w3.org/1999/xlink" viewBox="0 0 2164.59 781.26"><defs><style>.cls-1{fill:#098491;}.cls-10,.cls-11,.cls-12,.cls-13,.cls-14,.cls-15,.cls-16,.cls-17,.cls-18,.cls-19,.cls-2,.cls-20,.cls-21,.cls-3,.cls-4,.cls-5,.cls-6,.cls-7,.cls-8,.cls-9{stroke:#076266;stroke-linecap:round;stroke-miterlimit:10;stroke-width:6px;}.cls-2{fill:url(#Dégradé_sans_nom_22);}.cls-3{fill:url(#Dégradé_sans_nom_22-2);}.cls-4{fill:url(#Dégradé_sans_nom_22-3);}.cls-5{fill:url(#Dégradé_sans_nom_22-4);}.cls-6{fill:url(#Dégradé_sans_nom_22-5);}.cls-7{fill:url(#Dégradé_sans_nom_22-6);}.cls-8{fill:url(#Dégradé_sans_nom_22-7);}.cls-9{fill:url(#Dégradé_sans_nom_23);}.cls-10{fill:url(#Dégradé_sans_nom_18);}.cls-11{fill:url(#Dégradé_sans_nom_3);}.cls-12{fill:url(#Dégradé_sans_nom_2);}.cls-13{fill:none;}.cls-14{fill:url(#Dégradé_sans_nom_22-8);}.cls-15{fill:url(#Dégradé_sans_nom_3-2);}.cls-16{fill:url(#Dégradé_sans_nom_3-3);}.cls-17{fill:url(#Dégradé_sans_nom_22-9);}.cls-18{fill:url(#Dégradé_sans_nom_2-2);}.cls-19{fill:url(#Dégradé_sans_nom_22-10);}.cls-20{fill:url(#Dégradé_sans_nom_22-11);}.cls-21{fill:url(#Dégradé_sans_nom_22-12);}</style><linearGradient id="Dégradé_sans_nom_22" x1="526.7" y1="92.02" x2="750.5" y2="92.02" gradientUnits="userSpaceOnUse"><stop offset="0.17" stop-color="#098491"/><stop offset="0.3" stop-color="#168a96"/><stop offset="0.56" stop-color="#389ba2"/><stop offset="0.91" stop-color="#70b7b6"/><stop offset="1" stop-color="#80bfbc"/></linearGradient><linearGradient id="Dégradé_sans_nom_22-2" x1="713.98" y1="238.38" x2="771.25" y2="238.38" xlink:href="#Dégradé_sans_nom_22"/><linearGradient id="Dégradé_sans_nom_22-3" x1="263.58" y1="735.08" x2="299.15" y2="735.08" xlink:href="#Dégradé_sans_nom_22"/><linearGradient id="Dégradé_sans_nom_22-4" x1="745.52" y1="325.78" x2="781.1" y2="325.78" xlink:href="#Dégradé_sans_nom_22"/><linearGradient id="Dégradé_sans_nom_22-5" x1="325.47" y1="752.68" x2="491.84" y2="752.68" xlink:href="#Dégradé_sans_nom_22"/><linearGradient id="Dégradé_sans_nom_22-6" x1="145.7" y1="706.57" x2="236.98" y2="706.57" xlink:href="#Dégradé_sans_nom_22"/><linearGradient id="Dégradé_sans_nom_22-7" x1="762.63" y1="410.84" x2="795.2" y2="410.84" xlink:href="#Dégradé_sans_nom_22"/><radialGradient id="Dégradé_sans_nom_23" cx="703.2" cy="1161.28" r="28.1" gradientTransform="translate(-57.99 -577.82) rotate(-4.73)" gradientUnits="userSpaceOnUse"><stop offset="0" stop-color="#31a7b3"/><stop offset="0.16" stop-color="#2ea0ac"/><stop offset="0.39" stop-color="#278c98"/><stop offset="0.66" stop-color="#1b6c78"/><stop offset="0.97" stop-color="#0a404c"/><stop offset="1" stop-color="#083b47"/></radialGradient><radialGradient id="Dégradé_sans_nom_18" cx="-3763.17" cy="-1142.86" r="42.56" gradientTransform="matrix(0.67, -0.75, -0.75, -0.67, 2358.4, -2819.46)" gradientUnits="userSpaceOnUse"><stop offset="0" stop-color="#966a18"/><stop offset="1" stop-color="#c9a025"/></radialGradient><linearGradient id="Dégradé_sans_nom_3" x1="599.05" y1="556.73" x2="720.38" y2="556.73" gradientUnits="userSpaceOnUse"><stop offset="0" stop-color="#b58610"/><stop offset="0" stop-color="#bc8b13"/><stop offset="0" stop-color="#d0981b"/><stop offset="0" stop-color="#d89e1e"/><stop offset="0.37" stop-color="#d9a11a"/><stop offset="0.73" stop-color="#ddab0e"/><stop offset="1" stop-color="#e2b700"/></linearGradient><linearGradient id="Dégradé_sans_nom_2" x1="564.13" y1="779.61" x2="813.15" y2="530.59" gradientUnits="userSpaceOnUse"><stop offset="0" stop-color="#b58610"/><stop offset="0" stop-color="#bc8b0f"/><stop offset="0" stop-color="#d0990e"/><stop offset="0" stop-color="#e2a50c"/><stop offset="0.14" stop-color="#e8ad0a"/><stop offset="0.67" stop-color="#f9c503"/><stop offset="1" stop-color="#ffce00"/></linearGradient><linearGradient id="Dégradé_sans_nom_22-8" x1="-886.74" y1="-519.06" x2="-868.52" y2="-519.06" gradientTransform="matrix(0.97, 0.25, 0.25, -0.97, 1516.29, 414.93)" xlink:href="#Dégradé_sans_nom_22"/><linearGradient id="Dégradé_sans_nom_3-2" x1="71.19" y1="380.46" x2="296.28" y2="380.46" xlink:href="#Dégradé_sans_nom_3"/><linearGradient id="Dégradé_sans_nom_3-3" x1="228.71" y1="159.3" x2="429.53" y2="159.3" xlink:href="#Dégradé_sans_nom_3"/><linearGradient id="Dégradé_sans_nom_22-9" x1="111.9" y1="214.07" x2="285.96" y2="214.07" xlink:href="#Dégradé_sans_nom_22"/><linearGradient id="Dégradé_sans_nom_2-2" x1="21.29" y1="478.4" x2="482.83" y2="16.86" xlink:href="#Dégradé_sans_nom_2"/><linearGradient id="Dégradé_sans_nom_22-10" x1="304.89" y1="140.18" x2="469.33" y2="140.18" xlink:href="#Dégradé_sans_nom_22"/><linearGradient id="Dégradé_sans_nom_22-11" x1="56.59" y1="540.13" x2="200.03" y2="540.13" xlink:href="#Dégradé_sans_nom_22"/><linearGradient id="Dégradé_sans_nom_22-12" x1="83.17" y1="617.67" x2="123.68" y2="617.67" xlink:href="#Dégradé_sans_nom_22"/></defs><title>Logo final </title><g id="Calque_2" data-name="Calque 2"><g id="Calque_1-2" data-name="Calque 1"><path class="cls-1" d="M933.54,627.46v33.1a32.07,32.07,0,0,1-14.9,4q-12.81,0-20.26-9.12t-7.45-25.36q0-16,7.2-25.35a23.13,23.13,0,0,1,19.28-9.33q7.26,0,16.13,4.83v9.26q-9-6.6-15.64-6.6-16.14,0-16.13,27.14,0,26.44,17.11,26.45a28.44,28.44,0,0,0,3.82-.35V635.53h-7.45v-8.07Z"/><path class="cls-1" d="M945.61,663.66V619h9.85v12.07h.25q3-8,4.89-10.39a6.59,6.59,0,0,1,5.45-2.42,10.11,10.11,0,0,1,5.05,1.33l-.74,8.08a8.75,8.75,0,0,0-4.31-1.13q-4.62,0-7.6,6.65a31,31,0,0,0-3,12.76v17.73Z"/><path class="cls-1" d="M1011.31,655.39v6c-3.1,2.2-5.65,3.3-7.67,3.3q-5.5,0-7.23-5.62-5.4,5.87-10.69,5.86a10.35,10.35,0,0,1-7.64-3.37,11.13,11.13,0,0,1,1.32-16.92Q984,640.9,996,635.34v-4.29q0-5.81-5.84-5.81t-14.05,7.34v-9.07q7.51-5.76,14.9-5.76a17.09,17.09,0,0,1,10.5,3.25,10.4,10.4,0,0,1,4.34,8.77V655c0,1.74.51,2.61,1.54,2.61C1008,657.6,1009.34,656.86,1011.31,655.39ZM996,652.28V640.76q-11.58,5.61-11.58,11.62a5,5,0,0,0,1.35,3.62,4.53,4.53,0,0,0,3.43,1.4,6.31,6.31,0,0,0,4.68-2.24C995.33,653.67,996,652.71,996,652.28Z"/><path class="cls-1" d="M1018.88,687.75V619h9.85v3.2h.25a10.34,10.34,0,0,1,8.43-3.94q6.78,0,11.42,6.75t4.65,17q0,10.14-4.52,16.52t-11.55,6.38A11.14,11.14,0,0,1,1029,661h-.25v26.8Zm9.85-58.08v23.7q3.39,4,6.84,4,7.82,0,7.82-15.51,0-16.15-8.75-16.16a5.73,5.73,0,0,0-4.18,1.7C1029.31,628.56,1028.73,629.31,1028.73,629.67Z"/><path class="cls-1" d="M1063.77,663.66V596.27h9.85v27.15h.25q4-5.67,10.34-5.67a12.29,12.29,0,0,1,8.71,3.3q3.54,3.3,3.54,9.31v33.3h-9.85V631.34q0-6.45-5.17-6.45a7.57,7.57,0,0,0-5.39,2.37q-2.43,2.36-2.43,2.85v33.55Z"/><path class="cls-1" d="M1113.21,604.45a6.19,6.19,0,0,1-4-1.33,3.94,3.94,0,0,1,0-6.43,6.8,6.8,0,0,1,8,0,3.93,3.93,0,0,1,0,6.43A6.19,6.19,0,0,1,1113.21,604.45Zm-4.93,59.21V619h9.86v44.68Z"/><path class="cls-1" d="M1158.47,654.89v7.54a20.94,20.94,0,0,1-9.73,2.46,18.2,18.2,0,0,1-14.29-6.55q-5.71-6.55-5.72-16.65,0-10.55,5.66-17.24a18,18,0,0,1,14.35-6.7,27.23,27.23,0,0,1,8.86,1.63v8.08a17.3,17.3,0,0,0-7.32-2.22,9.76,9.76,0,0,0-8.35,4.36q-3.11,4.35-3.11,11.85,0,7.34,3.39,11.64a10.9,10.9,0,0,0,9,4.31A13.44,13.44,0,0,0,1158.47,654.89Z"/><path class="cls-1" d="M1208.65,663.66V596.27h11.94q28.88,0,28.88,33.6,0,16.8-7.17,25.29t-20.17,8.5Zm10.84-8.08h1.6q9.6,0,13.57-5.88t4-19.44q0-14.13-3.76-20t-13.55-5.89h-1.84Z"/><path class="cls-1" d="M1288,653.17V661a18.71,18.71,0,0,1-11.52,3.94q-8.49,0-13.18-6.11t-4.67-17.53q0-11.13,4.09-17.32a13,13,0,0,1,11.42-6.18q15.27,0,15,25.32h-20.62q0,14.53,9.94,14.53A12.86,12.86,0,0,0,1288,653.17Zm-19.65-16h10.9q0-12.51-5.66-12.51Q1268.32,624.65,1268.31,637.16Z"/><path class="cls-1" d="M1297.25,661.25v-8.67q5.49,4.83,9.73,4.82a5.6,5.6,0,0,0,3.51-1.08,3.34,3.34,0,0,0,1.42-2.76q0-3-5.58-9.7t-7-9.83a14.31,14.31,0,0,1-1.42-5.79,9.54,9.54,0,0,1,3.42-7.51,12.67,12.67,0,0,1,8.65-3,17.58,17.58,0,0,1,9.36,2.86v7.44c-3.2-2.1-6-3.16-8.44-3.16q-3.95,0-3.94,3.35c0,1.88,1.92,5,5.76,9.24s6.28,7.54,7.33,9.75a14.6,14.6,0,0,1,1.57,6.14,10.45,10.45,0,0,1-3.82,8.25,14.18,14.18,0,0,1-9.55,3.27A20.17,20.17,0,0,1,1297.25,661.25Z"/><path class="cls-1" d="M1336.48,604.45a6.19,6.19,0,0,1-4-1.33,3.94,3.94,0,0,1,0-6.43,6.82,6.82,0,0,1,8,0,3.94,3.94,0,0,1,0,6.43A6.2,6.2,0,0,1,1336.48,604.45Zm-4.93,59.21V619h9.85v44.68Z"/><path class="cls-1" d="M1388.14,625.88h-7.39q3.13,4.13,3.14,10.84,0,14.47-15.64,16.5a14.44,14.44,0,0,0-4,1,2.32,2.32,0,0,0-1.17,2.34,2.86,2.86,0,0,0,1.17,2.29q1.15,1,9.14,2.24t11.3,4.93a12.32,12.32,0,0,1,3.32,8.57,11.77,11.77,0,0,1-5.39,10q-5.38,3.87-14,3.87-7.95,0-13.24-3.57t-5.3-8.84q0-7.69,9.61-11-6.35-2.26-6.34-6.55,0-4.73,7.82-7.19-8.57-4.74-8.56-15.32,0-7.74,4.4-12.34t12.1-4.61h19Zm-19.77,42a10.85,10.85,0,0,0-6.74,2,6.06,6.06,0,0,0-2.62,5.07,5.73,5.73,0,0,0,2.71,4.93,12.4,12.4,0,0,0,7.14,1.87,12.8,12.8,0,0,0,7.3-2,5.74,5.74,0,0,0,2.92-4.83c0-1.94-1-3.59-3.14-5A13.42,13.42,0,0,0,1368.37,667.9Zm0-43a5.71,5.71,0,0,0-5,2.94c-1.26,2-1.88,4.65-1.88,8.07s.6,6.27,1.82,8.25a5.66,5.66,0,0,0,5,3,5.43,5.43,0,0,0,4.8-2.84,15,15,0,0,0,1.76-7.87,16.72,16.72,0,0,0-1.8-8.42A5.36,5.36,0,0,0,1368.4,624.89Z"/><path class="cls-1" d="M1395.71,663.66V619h9.85v4.83h.25q4.13-5.56,10.34-5.57a11.77,11.77,0,0,1,8.9,3.5q3.36,3.5,3.35,9.75v32.17h-9.85v-32q0-6.45-5.29-6.45a7.26,7.26,0,0,0-5.33,2.44q-2.37,2.43-2.37,2.88v33.1Z"/><path class="cls-1" d="M1467.87,653.17V661a18.68,18.68,0,0,1-11.51,3.94q-8.5,0-13.18-6.11t-4.68-17.53q0-11.13,4.1-17.32a13,13,0,0,1,11.42-6.18q15.27,0,15,25.32h-20.63q0,14.53,10,14.53A12.82,12.82,0,0,0,1467.87,653.17Zm-19.64-16h10.9q0-12.51-5.66-12.51Q1448.24,624.65,1448.23,637.16Z"/><path class="cls-1" d="M1480.06,663.66V619h9.86v12.07h.24q3-8,4.9-10.39a6.59,6.59,0,0,1,5.45-2.42,10.16,10.16,0,0,1,5,1.33l-.74,8.08a8.81,8.81,0,0,0-4.31-1.13q-4.62,0-7.61,6.65a31.12,31.12,0,0,0-3,12.76v17.73Z"/><path class="cls-1" d="M871.15,233.24C871.15,159.31,932.88,99,1006.81,99c39.48,0,71.78,15.08,95.46,38.05l-28.71,28.71c-16.51-18-39.48-28.71-66.75-28.71-53.12,0-92.59,43.06-92.59,96.18s39.47,96.18,92.59,96.18c39.48,0,71.78-24.4,85.41-58.86h-85.41V233.24h134.94c0,73.21-61.73,134.22-134.94,134.22C927.14,367.46,871.15,312.91,871.15,233.24Z"/><path class="cls-1" d="M1161.79,289.22V214.57H1202v74.65c0,23,17.23,40.92,40.2,40.92,23.69,0,40.2-17.95,40.2-40.92V214.57h40.19v74.65c0,46.66-40.19,78.24-81.11,78.24C1194.81,367.46,1161.79,335.88,1161.79,289.22Z"/><path class="cls-1" d="M1356.25,123.42c0-13.64,11.48-24.41,25.12-24.41a24.2,24.2,0,0,1,24.4,24.41c0,13.64-10.76,25.12-24.4,25.12A25.42,25.42,0,0,1,1356.25,123.42Zm4.3,91.15h40.2v149.3h-40.2Z"/><path class="cls-1" d="M1440.17,102.6h40.19V363.87h-40.19Z"/><path class="cls-1" d="M1519.78,102.6H1560V227.49c8.62-10,25.12-16.5,43.79-16.5,45.22,0,76.8,31.58,76.8,78.23v74.65h-40.2V289.22c0-23.68-16.51-40.91-40.19-40.91-23,0-40.2,17.23-40.2,40.91v74.65h-40.19Z"/><path class="cls-1" d="M1701.32,289.22c0-43.06,37.33-78.23,80.39-78.23,46.66,0,77.52,29.43,80.39,78.23v13.64H1740.8c5,17.95,20.82,30.15,40.91,30.15,12.92,0,20.1-3.59,30.87-13.64l24.4,25.12a77.53,77.53,0,0,1-55.27,23C1735.06,367.46,1701.32,335.88,1701.32,289.22ZM1822.63,272c-5.75-17.23-20.1-28.71-40.92-28.71-20.09,0-34.45,12.2-40.19,28.71Z"/><path class="cls-1" d="M1883.22,289.22c0-46.65,40.2-78.23,81.11-78.23,25.84,0,46.65,9.33,61,25.12,15.07-15.79,37.33-25.12,59.58-25.12,46.65,0,79.67,31.58,79.67,78.23v74.65h-40.2V289.22c0-23.68-17.22-40.91-40.19-40.91-23.69,0-40.2,17.23-40.2,40.91v74.65h-40.19V289.22c0-23.68-16.51-40.91-40.2-40.91-23,0-40.19,17.23-40.19,40.91v74.65h-40.2Z"/><path class="cls-1" d="M891.28,396.45h28.08v74.24H1015V396.45h28.08V569.67H1015V495.43H919.36v74.24H891.28Z"/><path class="cls-1" d="M1062.34,520.18c0-28.56,24.74-51.87,53.3-51.87,30.93,0,53.3,20.93,53.3,51.87,0,28.55-24.75,51.87-53.3,51.87C1084.71,572.05,1062.34,551.11,1062.34,520.18Zm80,0c0-15.71-11-27.13-26.65-27.13-15.23,0-26.65,11.42-26.65,27.13,0,15.23,11.42,27.12,26.65,27.12C1131.34,547.3,1142.29,535.41,1142.29,520.18Z"/><path class="cls-1" d="M1187.24,520.18V470.69h26.64v49.49c0,15.23,11.43,27.12,26.65,27.12,15.71,0,26.65-11.89,26.65-27.12V470.69h26.65v49.49c0,30.93-26.65,51.87-53.77,51.87C1209.13,572.05,1187.24,551.11,1187.24,520.18Z"/><path class="cls-1" d="M1316.89,520.18c0-30.94,26.65-51.87,53.77-51.87,30.94,0,52.83,20.93,52.83,51.87v49.49h-26.65V520.18c0-15.71-10.95-27.13-26.65-27.13-15.23,0-26.65,11.42-26.65,27.13v49.49h-26.65Z"/><path class="cls-1" d="M1445.59,410.25c0-9,7.61-16.18,16.66-16.18a16,16,0,0,1,16.18,16.18c0,9-7.14,16.65-16.18,16.65A16.86,16.86,0,0,1,1445.59,410.25Zm2.86,60.44h26.65v99h-26.65Z"/><path class="cls-1" d="M1495.3,520.18c0-28.56,24.74-51.87,53.3-51.87,30.93,0,51.39,19.51,53.29,51.87v9h-80.42c3.33,11.9,13.8,20,27.13,20,8.56,0,13.32-2.38,20.46-9.05l16.18,16.66a51.43,51.43,0,0,1-36.64,15.23C1517.66,572.05,1495.3,551.11,1495.3,520.18Zm80.42-11.42c-3.81-11.42-13.32-19-27.12-19-13.33,0-22.85,8.09-26.65,19Z"/><path class="cls-1" d="M1620.43,520.18V470.69h26.65v49.49c0,15.23,11.42,27.12,26.65,27.12,15.7,0,26.65-11.89,26.65-27.12V470.69H1727v49.49c0,30.93-26.65,51.87-53.78,51.87C1642.32,572.05,1620.43,551.11,1620.43,520.18Z"/><path class="cls-2" d="M539.69,50.29,662.18,162.7a4.09,4.09,0,0,0,2.86,1.08l81.45-1.84a4.09,4.09,0,0,0,2.75-7l-49.92-48.25a4.39,4.39,0,0,0-1-.69L532.68,20.73a4.09,4.09,0,0,0-5.52,5.49l11.64,22.9A4.22,4.22,0,0,0,539.69,50.29Z"/><path class="cls-3" d="M714.84,225.71l22.88,35.39a5.43,5.43,0,0,0,1.13,1.26l23.67,19.1a5.34,5.34,0,0,0,8.14-6.54L732,197a5.34,5.34,0,0,0-9.85.67l-7.89,23.39A5.32,5.32,0,0,0,714.84,225.71Z"/><path class="cls-4" d="M293,754l-8.78-4.88a4.21,4.21,0,0,1-1.33-1.19l-18.55-25.78a4.12,4.12,0,0,1,3.78-6.5l15.36,1.63a4.12,4.12,0,0,1,3.37,2.52l12,29A4.12,4.12,0,0,1,293,754Z"/><path class="cls-5" d="M751.65,306.86l8.78,4.89a4.13,4.13,0,0,1,1.34,1.19l18.54,25.78a4.12,4.12,0,0,1-3.77,6.5l-15.37-1.63a4.11,4.11,0,0,1-3.37-2.53l-11.95-29A4.11,4.11,0,0,1,751.65,306.86Z"/><path class="cls-6" d="M332,727.13,453.4,738.72a5.51,5.51,0,0,1,2.19.69L488.71,758c5.25,3,3.52,11.5-2.43,12l-100.9,8.23a5.53,5.53,0,0,1-3.7-1l-53.6-38.43C323,735.13,325.9,726.55,332,727.13Z"/><path class="cls-7" d="M217.09,750.64l-40.19-30.7a5.82,5.82,0,0,1-1.46-1.63l-28.88-48.16a5.81,5.81,0,0,1,7.67-8.14l76.72,40A5.81,5.81,0,0,1,234,706.7L237,740.56a5.82,5.82,0,0,1-3.31,5.76l-10.55,5A5.83,5.83,0,0,1,217.09,750.64Z"/><path class="cls-8" d="M763,406.09l23.79-42.47a3.13,3.13,0,0,1,5.85,1.24l2.52,27.4a3.18,3.18,0,0,1,0,.69l-8.35,64a3.13,3.13,0,0,1-6.05.67L762.83,408.7A3.14,3.14,0,0,1,763,406.09Z"/><polygon class="cls-9" points="754.12 523.39 726.4 559.3 741.05 484.47 754.12 523.39"/><path class="cls-10" d="M731.88,738s.82,7.45,7.76,9.29c13.71,3.65,23.19,11.31,19.67,15.29-10.5,11.88-93.12-15-111.19-23.5s37.59-13.74,37.59-13.74l34.77,2.79Z"/><path class="cls-11" d="M600.47,650.53s20.29-5.67,33.32-21.83c18.2-22.58,36.35-56.79,39.36-91.51s.57-56.68-1.8-65.23-3.55-15.57-1.21-19,6.15-5.89,10.56,0c3.47,4.63,10.07,6.35,11.8,19.83,1.71,2.69,15.56,7.59,11.88,22.85,2,3.17,13.06,15.67,7.67,27.43,4.31,4.4,10.26,12.49,7.72,22L692.88,645.39l-31.29,18.67s-39-1-41.35-2.51-21.19-8-21.19-8Z"/><path class="cls-12" d="M770.72,746.93c4.84,6.5.11,9.9-22.59,9.35-10.52-.71-20.57-.88-42.67-3.67-21.5-2.71-43-5.14-83.18-12.67-12-2.05-27.42-1.76-30.58-.58s-12.45,11.39-28.43,12.39c-11.76.73-24.82-8.31-32.25-18.19-1.79,4.39-1.95,8.81-6,5.7s-32.38-22.85-25.64-61.3c7.5-42.77,51.1-49.39,69.87-40.9,20.82,9.41,35.14,16.91,51.48,15.8S691,615.44,707.11,574.1s20.49-98.44,18.49-106.89-6.66-25.7,3.88-19a36.45,36.45,0,0,1,14.84,18.76c.29.83,1.09,1.16,1.86,1.59,6.83,3.84,22.54,22,17.6,40.29,2.65,3.76,16.63,20.9,7.16,61.9,4.54,5.79,18,23.7-2.47,58.1,2,6.31,6.37,23.94-9.82,53.7-.51,8.69-1,34.44-27.67,49.83l10,2.89C753.23,738.22,765.6,740,770.72,746.93Z"/><path class="cls-13" d="M498.81,683c2.34-20.26,27.51-43.41,62-27.2,27.56,13,39,38.7,30.94,60.3"/><ellipse class="cls-14" cx="535.36" cy="693.19" rx="8.47" ry="15.64" transform="translate(-274.87 360.55) rotate(-30)"/><path class="cls-15" d="M130.75,247.5s23.73,8.48,54.09,41.13c11.19,12,43.93,46.22,38.83,92.76s5.13,74.88,22.54,84.24,58.07,26.76,48.68,44.52c-9.07,13.93-30.67-2.13-41.46-8.59-11.5-6.9-35.36-18.62-42.9-42.38S197.74,390,157,377.37c-45.69-14.15-80.58-63.66-85.43-82.85S111.92,235.37,130.75,247.5Z"/><path class="cls-16" d="M388.36,195.61c1,1.4,7.11,4.62,8.55,5.56,4.28,2.78,14,32.47,26.21,18,5.32-6.3,12-22.11-1.74-37.23C413.3,173,382,154.72,344.49,159.55s-64.72,10.43-61-30c4.25-46.13-54.79-32-54.79-32l33.69,73.73s13.17,20.05,14.07,20,86.12,2.43,86.12,2.43l21.69-4.11Z"/><path class="cls-17" d="M130.35,304.64s49.92-93.51,131.88-146.49-74.71-29.44-74.71-29.44L111.9,298.52Z"/><path class="cls-18" d="M6.62,340.07s-31.54-155.77,126-269.9c6.83-4.94,13.62-9.93,20.43-14.9C217,8.57,302.41-7.07,378.27,9.28c22.31,3.71,46.12,2.35,65,2.06,18.31-.27,28.32.42,32.31.73,13,1-1,22-36,20,6,5,47.05,8.08,53,8,9-.14-5.8,25.23-45.59,21.22,2.86,3.36,18.09,5.74,25.27,39.9,6.27,29.87,10.54,31.13,17.9,40.49s26.71,26.45,22.35,28.77c-4.93,2.62-22.77,11.24-31.85,5.37-4.7-3-48.47-50.72-175.68-33-.58,4.76-5,44.09,22.08,41.43,27.7-2.72,63.63-9.08,82.8,10.57,18.52,19,21.8,35.33,6.85,47-13.12,10.25-17.71-21.68-34.84-24.67-9.19-1.6-89.43,7.49-107.35-3.35s-28.65-36.17-25.71-54.38c-4.46-5-47.73.51-118.29,138.19,10.32.53,64.89,23.76,67.53,80.86s13.82,99,38.72,109.14,49.16,18.58,39.06,39.15c-6.79,13.83-56.86-7.48-74.15-36.72s-25.78-47.43-31-60.36-13-24.19-50.91-29.18-79-36.49-89.68-51.12c-4.63,8-.94,43.63,33.45,67.71s81.72,49.4,114,112c33,64,20.86,75.86,15.34,81-14.56,13.44-40.34,7-67.34-30-30.25-41.45-72.37-74.36-97-118C5.59,421.27-2.38,371.07,6.62,340.07Z"/><path class="cls-19" d="M304.89,143.51s5.27-40.91,83.92-27.38c47.16,8.11,63.77,25.71,80.52,50.85C455.79,159.86,395.56,127.62,304.89,143.51Z"/><path class="cls-20" d="M197.59,578.78c-9.61-44.09-39-81.25-77.28-105.12-4-2.49-8.44-4.92-13-7.9-20.74-13.69,9.26,20.31,11.52,35.83,2.47,16.94-40.26-17.52-59.51-35.14-11.24-10.28,13.87,48.92,35.25,74.62s36.51,47.43,53,63c18,17,39.62,18,49.43,3.61C201.34,601.41,200.53,592.23,197.59,578.78Z"/><path class="cls-21" d="M83.37,628.17l-.2-42c0-3.12,3.53-4.78,4.9-2.3l35.22,63.73c1.43,2.59-1.38,6.12-3.71,4.67l-35-21.76A2.77,2.77,0,0,1,83.37,628.17Z"/></g></g></svg>